# xmcd
#
# Track frame offsets:
#	150
#	15270
#	28916
#	45196
#	61612
#	75769
#	92012
#	109863
#	121947
#	138878
#	156385
#	171721
#	183758
#
# Disc length: 2625 seconds
# Revision: 0
# Processed by: cddbd v1.5.2PL0 Copyright (c) Steve Scherf et al.
# Submitted via: dBpowerAMP V12.0
#
DISCID=920a3f0d
DTITLE=Marshall Lawrence - House Call
DYEAR=2013
DGENRE=Blues
TTITLE0=Mean Momma Blues
TTITLE1=I Got to Ramble
TTITLE2=Factory Closing Blues
TTITLE3=Please Help Me Find My Way Home
TTITLE4=Ballad of Molly Brown
TTITLE5=Biscuit Rolling Daddy
TTITLE6=Rich Man Can't Get the Blues
TTITLE7=Canned Heat Blues
TTITLE8=I Wanna Love You
TTITLE9=Another Saturday Night
TTITLE10=Long Way Back Home
TTITLE11=Hey Girl (Tired of Your Lying)
TTITLE12=Death's Black Train
EXTD=
EXTT0=
EXTT1=
EXTT2=
EXTT3=
EXTT4=
EXTT5=
EXTT6=
EXTT7=
EXTT8=
EXTT9=
EXTT10=
EXTT11=
EXTT12=
PLAYORDER=
